Coordinates
nRows=15
nColumns=24

# SIMM Motion File Header:
name Coordinates
datacolumns 24
datarows 15
otherdata 1
range 1.62500000000000000000 1.63900000000000000000

Units are S.I. units (second, meters, Newtons, ...)
Angles are in degrees.

endheader
time	pelvis_tx	pelvis_ty	pelvis_tz	pelvis_tilt	pelvis_list	pelvis_rotation	hip_flexion_r	hip_adduction_r	hip_rotation_r	knee_angle_r	ankle_angle_r	subtalar_angle_r	mtp_angle_r	hip_flexion_l	hip_adduction_l	hip_rotation_l	knee_angle_l	ankle_angle_l	subtalar_angle_l	mtp_angle_l	lumbar_extension	lumbar_bending	lumbar_rotation
      1.62500000000000000000	      0.61381922395102384000	      1.05076733021042970000	      0.00048047346075284655	      6.08663531537762740000	     -1.82657971620338940000	      0.36250099052266704000	     18.92822731901349400000	     -3.51297170159488430000	     -7.86137593019408690000	    -57.74736713804295400000	      2.44583615883232450000	     -0.00996093622442569860	      0.01090656428078858700	     -4.89478723019683310000	      1.31557809147274880000	     -1.08987416905828670000	     -9.25104200853792410000	      6.88766014447126110000	      0.11177141780027575000	      0.06674327109056929500	    -15.85794960470517400000	     -0.25246182960232316000	     -6.55476676830357350000
      1.62600000000000010000	      0.61370071379159596000	      1.05073355263965730000	      0.00041955202312484417	      6.07643518285984200000	     -1.82503809974775870000	      0.37065974690805015000	     18.99877609432268600000	     -3.51401141311095120000	     -7.90034621523141210000	    -57.50688816835562300000	      2.44045672907301150000	     -0.00992055832964628370	      0.01087713282830897800	     -4.96940410210022150000	      1.31939933199712910000	     -1.09201247600434040000	     -9.20523247712303320000	      6.91713634187832760000	      0.11204755211966633000	      0.06611392436830042200	    -15.85654682916620000000	     -0.24539935171231750000	     -6.56100786230598490000
      1.62700000000000000000	      0.61358223393401556000	      1.05069788395714480000	      0.00035939737280605395	      6.06613179351924980000	     -1.82319624710327790000	      0.37837892369657361000	     19.06838279669129900000	     -3.51538223189756400000	     -7.93976511344144420000	    -57.26390153966524100000	      2.43502804975396940000	     -0.00988027771853251980	      0.01084715810196148900	     -5.04387263738210120000	      1.32353498439816500000	     -1.09463395729203720000	     -9.15952068842517160000	      6.94657749284834390000	      0.11231339141971339000	      0.06548575894660151100	    -15.85506047777348800000	     -0.23871446460124982000	     -6.56682101813431450000
      1.62800000000000010000	      0.61346380490524677000	      1.05066033398986240000	      0.00030001238992102044	      6.05572774880531380000	     -1.82105387782887230000	      0.38566357878326135000	     19.13703658047639400000	     -3.51707142565885000000	     -7.97962157044581130000	    -57.01840246396833600000	      2.42956116545097300000	     -0.00984008721349201660	      0.01081664785116534500	     -5.11820083050865640000	      1.32798593687440890000	     -1.09773129241566410000	     -9.11389938865719000000	      6.97599160512115010000	      0.11256842742844185000	      0.06485814347683681300	    -15.85349127230474800000	     -0.23240761752691291000	     -6.57221439016735150000
      1.62900000000000000000	      0.61334544738209495000	      1.05062091272167120000	      0.00024139975658846519	      6.04522572966690670000	     -1.81861065062197060000	      0.39251897256073720000	     19.20472671492686700000	     -3.51906629287124370000	     -8.01990395064891000000	    -56.77038635994828300000	      2.42406630031173130000	     -0.00979997694372128360	      0.01078561010140318000	     -5.19239676238872240000	      1.33275306965061380000	     -1.10129685478862240000	     -9.06836136968900060000	      7.00538854898099930000	      0.11281181167528347000	      0.06422747690804470100	    -15.85183998695002700000	     -0.22647929116484503000	     -6.57719634609958880000
      1.63000000000000010000	      0.61322718205963789000	      1.05057962979419560000	      0.00018356198216797656	      6.03462848997439230000	     -1.81586617451168890000	      0.39895056565357329000	     19.27144257746197200000	     -3.52135417120871130000	     -8.06060003303262640000	    -56.51984887413821900000	      2.41855285839952620000	     -0.00975994092979748720	      0.01075405291704866800	     -5.26646861664171160000	      1.33783724092494660000	     -1.10532282466974490000	     -9.02289947850666610000	      7.03477660962496200000	      0.11304350313463365000	      0.06359351038856442300	    -15.85010745728698500000	     -0.22092999240404015000	     -6.58177545581283410000
      1.63100000000000000000	      0.61310902962635261000	      1.05053649441127850000	      0.00012650139698631413	      6.02393885358123350000	     -1.81282000710803230000	      0.40496401415935501000	     19.33717366199726200000	     -3.52392245566437620000	     -8.10169701299769680000	    -56.26678590432531000000	      2.41302943839543050000	     -0.00971997532065575590	      0.01072198398443053800	     -5.34042467214762070000	      1.34323929691143440000	     -1.10980119208738800000	     -8.97750663426352700000	      7.06416265257307960000	      0.11326396272449933000	      0.06295899315417199900	    -15.84829457982593900000	     -0.21576025604468294000	     -6.58596048455817500000
      1.63200000000000010000	      0.61299101085716434000	      1.05049151563921090000	      0.00007022012634435277	      6.01315971536057160000	     -1.80947164591206190000	      0.41056516207408900000	     19.40190960180518000000	     -3.52675861819819580000	     -8.14318150659359220000	    -56.01119362079906900000	      2.40750385402227570000	     -0.00968007329318462850	      0.01068941066696148800	     -5.41427327609515000000	      1.34896008633719530000	     -1.11472372616033200000	     -8.93217584166466950000	      7.09355367236113300000	      0.11347339517103316000	      0.06232677401795979500	    -15.84640230177373400000	     -0.21097064837827265000	     -6.58976039039325470000
      1.63300000000000000000	      0.61287314672269444000	      1.05044470270866830000	      0.00001472008723403199	      6.00229404401003830000	     -1.80582052688319880000	      0.41576003187254967000	     19.46564019126242000000	     -3.52985021595457620000	     -8.18503955262352000000	    -55.75306848415031900000	      2.40198315179014130000	     -0.00964022819098625350	      0.01065634076756615700	     -5.48802282018977650000	      1.35500044935004340000	     -1.12008189256447840000	     -8.88690018102495390000	      7.12295846685746880000	      0.11367186080312740000	      0.06169676788876599800	    -15.84443161099899900000	     -0.20656176524490572000	     -6.59318431879914080000
      1.63400000000000010000	      0.61275545836793988000	      1.05039606492582080000	     -0.00003999700623348988	      5.99134488087842780000	     -1.80186602527987700000	      0.42055481727408450000	     19.52835539222827800000	     -3.53318490386647490000	     -8.22725661459407930000	    -55.49240726905846800000	      2.39647362947082020000	     -0.00960043561771657850	      0.01062278287634520000	     -5.56168173673262430000	      1.36136121478573120000	     -1.12586684265271940000	     -8.84167281322170770000	      7.15238782642095930000	      0.11385943215464908000	      0.06106560540444395900	    -15.84238353696135900000	     -0.20253423201701334000	     -6.59624159159107840000
      1.63500000000000000000	      0.61263796694734007000	      1.05034561118005730000	     -0.00009392964270236876	      5.98031533112294420000	     -1.79760745924370550000	      0.42495588041733917000	     19.59004532792188500000	     -3.53675045312120600000	     -8.26981758584312670000	    -55.22920709619191400000	      2.39098085700208340000	     -0.00956069151230555180	      0.01058874564019343100	     -5.63525851220392490000	      1.36804321193215350000	     -1.13206958165791010000	     -8.79648701297367810000	      7.18185093993932360000	      0.11403642079830914000	      0.06043310994366961300	    -15.84025915956250200000	     -0.19888870326201818000	     -6.59894169141547950000
      1.63600000000000010000	      0.61252069358641248000	      1.05029334986196730000	     -0.00014707652059047855	      5.96920856203889460000	     -1.79304408633133770000	      0.42896974548823463000	     19.65070028849134700000	     -3.54053476942044830000	     -8.31270679237157140000	    -54.96346545799728700000	      2.38550969694589290000	     -0.00952099025542838160	      0.01055423730178936400	     -5.70876168295179820000	      1.37504727906520710000	     -1.13868098103303890000	     -8.75133618595242350000	      7.21135547830822170000	      0.11420320251420427000	      0.05980210310802885900	    -15.83805961137634600000	     -0.19562586610476262000	     -6.60129425137604820000
      1.63700000000000000000	      0.61240365948347308000	      1.05023928917046700000	     -0.00019943656548219250	      5.95802780554837600000	     -1.78817509707268970000	      0.43260308996217339000	     19.71031075290098400000	     -3.54452590800161000000	     -8.35590799578630340000	    -54.69518023843922800000	      2.38006432419341920000	     -0.00948132304418517450	      0.01051926596862213200	     -5.78219980978978840000	      1.38237426616106760000	     -1.14569172813751720000	     -8.70621387444132290000	      7.24090917831344160000	      0.11435989504147505000	      0.05917549147272897800	    -15.83578606826073300000	     -0.19274644228173507000	     -6.60330905097840670000
      1.63800000000000010000	      0.61228688603254311000	      1.05018343741176470000	     -0.00025100892614796506	      5.94677636109656400000	     -1.78299961813261890000	      0.43586273466750119000	     19.76886741162859800000	     -3.54871207515145090000	     -8.39940439497816450000	    -54.42434972891788200000	      2.37464824223364920000	     -0.00944168526708440670	      0.01048384060096091900	     -5.85558145526459750000	      1.39002501120564050000	     -1.15309222096811030000	     -8.66111372840659220000	      7.27052160321724370000	      0.11450681868187509000	      0.05855310692175967600	    -15.83343973801548000000	     -0.19025118191269064000	     -6.60499600965323810000
      1.63900000000000000000	      0.61217039478864155000	      1.05012580291755600000	     -0.00030179297359871863	      5.93545759423099280000	     -1.77751671357973560000	      0.43875563665926565000	     19.82636117127084000000	     -3.55308163938327140000	     -8.44317862819918650000	    -54.15097265245757500000	      2.36926430145575970000	     -0.00940207905558061890	      0.01044797137662868000	     -5.92891518260477300000	      1.39800033579486450000	     -1.16087255746635810000	     -8.61602950730905800000	      7.30020433277613190000	      0.11464467383854036000	      0.05793135415531024100	    -15.83102186262702400000	     -0.18814086254487294000	     -6.60636517427735460000
